<?xml version="1.0" encoding="utf-8"?>
<svg viewBox="0 0 217.004 104.319" xmlns="http://www.w3.org/2000/svg">
  <rect data-v-fde0c5aa="" fill="#81AAD9" width="217.988" height="104.483" class="logo-background-square" style="" x="-0.164"/>
  <g data-v-fde0c5aa="" id="aa494662-1cb1-45fe-b64b-98a51be37758" fill="#ffffff" transform="matrix(7.974595, 0, 0, 7.974595, 124.524914, -2.843734)">
    <path d="M6.45 3.42L6.45 3.42L6.45 3.42Q6.78 3.57 6.78 3.86L6.78 3.86L6.78 3.86Q6.78 4.06 6.61 4.40L6.61 4.40L6.61 4.40Q6.40 4.84 6.38 4.90L6.38 4.90L6.38 4.90Q6.05 5.94 5.75 8.05L5.75 8.05L5.75 8.05Q5.45 10.16 5.14 11.16L5.14 11.16L5.14 11.16Q5.05 11.44 4.66 11.44L4.66 11.44L4.66 11.44Q4.48 11.44 4.34 11.37L4.34 11.37L4.34 11.37Q3.82 11.10 3.60 10.33L3.60 10.33L3.60 10.33Q3.58 10.26 3.33 8.93L3.33 8.93L3.33 8.93Q3.21 8.23 3.09 7.43L3.09 7.43L3.09 7.43Q2.90 7.83 2.58 9.38L2.58 9.38L2.58 9.38Q2.30 10.72 1.92 11.09L1.92 11.09L1.92 11.09Q1.81 11.20 1.53 11.12L1.53 11.12L1.53 11.12Q1.11 11.06 0.97 10.61L0.97 10.61L0.97 10.61Q0.88 10.22 0.80 9.83L0.80 9.83L0.80 9.83Q0.55 8.82 0.40 6.69L0.40 6.69L0.40 6.69Q0.25 4.56 0 3.58L0 3.58L0 3.58Q-0.04 3.42 0.04 3.26L0.04 3.26L0.04 3.26Q0.13 3.11 0.28 3.09L0.28 3.09L0.28 3.09Q0.39 3.07 0.50 3.07L0.50 3.07L0.50 3.07Q0.90 3.07 1.11 3.42L1.11 3.42L1.11 3.42Q1.33 4.59 1.64 7.99L1.64 7.99L1.64 7.99Q1.75 7.76 1.90 7.10L1.90 7.10L1.90 7.10Q2.04 6.45 2.18 6.16L2.18 6.16L2.18 6.16Q2.31 5.63 2.42 5.10L2.42 5.10L2.42 5.10Q2.59 4.45 3.12 4.45L3.12 4.45L3.12 4.45Q3.26 4.45 3.43 4.49L3.43 4.49L3.43 4.49Q3.44 4.58 3.56 4.59L3.56 4.59L3.56 4.59Q3.67 4.61 3.68 4.63L3.68 4.63L3.68 4.63Q3.99 5.32 4.14 6.47L4.14 6.47L4.14 6.47Q4.38 8.09 4.44 8.34L4.44 8.34L4.44 8.34Q4.66 7.10 4.90 5.87L4.90 5.87L4.90 5.87Q5.19 4.42 5.66 3.51L5.66 3.51L5.66 3.51Q5.75 3.33 6.06 3.33L6.06 3.33L6.06 3.33Q6.29 3.33 6.45 3.42ZM11.44 7.53L11.44 7.53L11.44 7.53Q11.30 7.85 11.17 8.18L11.17 8.18L11.17 8.18Q11.00 8.55 10.81 8.78L10.81 8.78L10.81 8.78Q10.37 9.32 9.94 9.86L9.94 9.86L9.94 9.86Q9.42 10.50 9.00 10.75L9.00 10.75L9.00 10.75Q8.86 10.92 8.69 11.10L8.69 11.10L8.69 11.10Q8.53 11.28 8.36 11.28L8.36 11.28L8.36 11.28Q8.27 11.28 8.16 11.24L8.16 11.24L8.16 11.24Q8.05 11.20 7.92 11.14L7.92 11.14L7.92 11.14Q7.78 11.09 7.73 10.96L7.73 10.96L7.73 10.96Q7.69 10.37 7.69 9.70L7.69 9.70L7.69 9.70Q7.69 9.02 7.74 7.66L7.74 7.66L7.74 7.66Q7.80 6.30 7.80 5.61L7.80 5.61L7.80 5.61Q7.80 4.70 7.73 3.95L7.73 3.95L7.73 3.95Q7.71 3.93 7.42 3.63L7.42 3.63L7.42 3.63Q7.24 3.44 7.24 3.29L7.24 3.29L7.24 3.29Q7.24 3.22 7.27 3.15L7.27 3.15L7.27 3.15Q7.34 2.98 7.57 2.95L7.57 2.95L7.57 2.95Q7.76 2.93 7.94 2.91L7.94 2.91L7.94 2.91Q9.11 3.16 10.40 4.23L10.40 4.23L10.40 4.23Q10.74 4.51 10.95 4.82L10.95 4.82L10.95 4.82Q11.62 5.81 11.62 6.68L11.62 6.68L11.62 6.68Q11.62 7.13 11.44 7.53ZM10.43 6.03L10.43 6.03L10.43 6.03Q10.30 5.15 8.93 4.48L8.93 4.48L8.93 4.48Q8.83 6.82 8.88 9.44L8.88 9.44L8.88 9.44Q10.46 7.85 10.46 6.43L10.46 6.43L10.46 6.43Q10.46 6.23 10.43 6.03Z"/>
  </g>
  <g data-v-fde0c5aa="" id="99ac2361-09be-480d-b330-191b8d95fac7" stroke="none" fill="#F2CCB1" transform="matrix(1.142289, 0, 0, 1.142289, 0.798248, -4.473347)">
    <path d="M99.2 33.4L50.7 5.5c-.5-.3-1-.3-1.5 0L.8 33.4c-.5.3-.8.8-.8 1.3s.3 1 .7 1.3l15.5 9.6v24.8c0 8.6 14.8 15.3 33.7 15.3 6.8 0 13.2-.9 18.7-2.5.4 2.2 1.8 4.1 3.7 5.1l-3 3c-.6.6-.6 1.5 0 2.1.3.3.7.4 1.1.4s.8-.1 1.1-.4l2.7-2.7v2.4c0 .8.7 1.5 1.5 1.5s1.5-.7 1.5-1.5v-2.4l2.7 2.7c.3.3.7.4 1.1.4s.8-.1 1.1-.4c.6-.6.6-1.5 0-2.1l-3-3c2.3-1.2 3.8-3.6 3.8-6.3 0-2-.8-3.9-2.2-5.2 1.9-1.9 2.9-4 2.9-6.3V45.7L99.3 36c.4-.3.7-.8.7-1.3s-.3-1-.8-1.3zM49.2 66c.2.1.5.2.8.2s.5-.1.8-.2l23.4-14.5V69c-5.4 2.8-13.8 4.9-24.2 4.9-18.4 0-30.8-6.4-30.8-12.3V47.5l30 18.5zm-30 4.4V68c5.3 5.3 16.9 8.9 30.8 8.9 9.6 0 18.1-1.7 24.2-4.6V75c-2.6.6-4.7 2.5-5.4 5.1-5.4 1.7-12.1 2.7-18.9 2.7-18.3 0-30.7-6.4-30.7-12.4zm56.5 15.8c-2.3 0-4.2-1.9-4.2-4.2 0-2.3 1.9-4.2 4.2-4.2 2.3 0 4.2 1.9 4.2 4.2 0 2.3-1.9 4.2-4.2 4.2zm4.9-15.7c0 1.9-1.3 3.6-2.6 4.7-.3-.1-.6-.2-.9-.2v-4.3c1.3-.8 2.5-1.7 3.4-2.7l.1 2.5zm0-8.9c0 1.9-1.2 3.8-3.4 5.5V49.7l3.4-2.1v14zm-4.4-14.8L55.5 34.7c.1-.4.2-.9.2-1.3 0-2.9-2.4-5.3-5.3-5.3s-5.3 2.4-5.3 5.3 2.4 5.3 5.3 5.3c1.4 0 2.6-.5 3.6-1.4l19.4 11.3L50 63 4.4 34.8 50 8.5l45.6 26.2-19.4 12.1zM50.4 35.6c-1.3 0-2.3-1-2.3-2.3 0-1.3 1-2.3 2.3-2.3s2.3 1 2.3 2.3c-.1 1.3-1.1 2.3-2.3 2.3z"/>
  </g>
</svg>